<svg width="749" height="110" xmlns="http://www.w3.org/2000/svg"><g fill="none" fill-rule="evenodd"><path d="M275.232 69.264c0 2.88-.144 4.608-.72 7.344h-61.776c2.304 9.648 10.656 15.696 22.032 15.696 7.92 0 12.672-2.16 17.568-7.92h20.88c-5.328 16.416-21.888 25.488-38.016 25.488-24.336 0-43.2-18.144-43.2-41.472 0-23.472 18.576-42.048 42.048-42.048 23.76 0 41.184 18.144 41.184 42.912zm-18.864-9.504c-2.448-10.224-10.224-15.84-22.032-15.84-11.376 0-19.152 5.616-22.176 15.84h44.208zm48.15 48.24V1.584h-19.152V108h19.152zm92.934-38.736c0 2.88-.144 4.608-.72 7.344h-61.776c2.304 9.648 10.656 15.696 22.032 15.696 7.92 0 12.672-2.16 17.568-7.92h20.88c-5.328 16.416-21.888 25.488-38.016 25.488-24.336 0-43.2-18.144-43.2-41.472 0-23.472 18.576-42.048 42.048-42.048 23.76 0 41.184 18.144 41.184 42.912zm-18.864-9.504c-2.448-10.224-10.224-15.84-22.032-15.84-11.376 0-19.152 5.616-22.176 15.84h44.208zM527.25 108V61.92c0-23.904-11.232-35.568-32.256-35.568-11.232 0-19.152 3.744-25.632 12.384-5.472-8.64-12.528-12.384-23.472-12.384-9.36 0-15.12 2.592-20.736 9.36v-7.488h-17.568V108h19.152V68.688c0-18.864 4.464-24.768 15.552-24.768 10.08 0 15.552 4.608 15.552 20.304V108h19.152V68.688c0-19.008 5.472-24.768 16.128-24.768 8.928 0 14.976 4.32 14.976 20.304V108h19.152zm93.222-38.736c0 2.88-.144 4.608-.72 7.344h-61.776c2.304 9.648 10.656 15.696 22.032 15.696 7.92 0 12.672-2.16 17.568-7.92h20.88c-5.328 16.416-21.888 25.488-38.016 25.488-24.336 0-43.2-18.144-43.2-41.472 0-23.472 18.576-42.048 42.048-42.048 23.76 0 41.184 18.144 41.184 42.912zm-18.864-9.504c-2.448-10.224-10.224-15.84-22.032-15.84-11.376 0-19.152 5.616-22.176 15.84h44.208zM701.454 108V65.232c0-14.256-1.44-21.168-5.76-27.36-5.184-7.488-13.824-11.52-24.912-11.52-9.072 0-15.408 2.736-22.464 9.504v-7.632h-17.712V108h19.152V70.416c0-10.656.72-15.264 3.168-19.152 3.024-4.752 8.064-7.344 14.112-7.344 9.504 0 15.264 3.744 15.264 25.056V108h19.152zm46.854-62.352V28.224h-11.52V1.584h-19.152v26.64h-9.36v17.424h9.36V108h19.152V45.648h11.52z" fill="#000"/><path d="M33.125 17.58l67.83-15.659c22.477-5.19 44.929 8.926 50.147 31.528 5.218 22.601-8.774 45.13-31.25 50.32L52.02 99.427C29.544 104.618 7.093 90.502 1.875 67.9c-5.218-22.601 8.773-45.13 31.25-50.32z" fill="#CDD3DE"/><path d="M43.769 26h69.614c23.069 0 41.77 18.804 41.77 42s-18.701 42-41.77 42H43.77C20.7 110 2 91.196 2 68s18.7-42 41.769-42z" fill="#D62B1E"/><path fill="#FFF" d="M103.532 75.252v-13.91H85.788V43.5H71.954v17.842H54.211v13.91h17.743v17.842h13.834V75.252z"/></g></svg>