<svg width="387" height="100" xmlns="http://www.w3.org/2000/svg"><g fill="none" fill-rule="evenodd"><path d="M130.435 46.087L110.87 61.739c-.435.435-1.74.435-2.174-.435l-5.653-6.956c-.434-.435-.434-1.305 0-1.74 0-.434.87-.869 1.305-1.304.435-.434 1.304-.87 1.739-1.739.87-.435 1.304-.87 2.174-1.739 2.174-2.609 6.087-7.391 10-5.217.87 0 .87.434 1.304 1.304 0 .435-.435.87-.87 1.304l-.434.435h.435c.434.435.87 0 1.304 0 .435-.435.87-.87 1.304-1.739.435-.87.87-1.74 1.305-2.174 2.174-3.043 4.782-4.782 8.26-5.652.435-.435 1.305 0 1.74.435l1.739 2.608c.435.87.435 1.74 0 2.174l-3.913 4.783z" fill="#666"/><path d="M129.13 44.783L110 60.435l-5.652-6.957c0-.435 3.478-3.043 4.782-4.348 2.61-3.043 5.653-6.521 8.696-5.217-2.609 1.74-.435 4.783 2.609 3.044 3.043-1.305 3.043-7.392 10.87-9.566l1.738 3.044-3.913 4.348z" fill="#CCC"/><path d="M130.87 37.826h.434c-7.391 2.174-6.956 7.826-10 9.565-1.304.435-2.174.435-2.608 0 .434 0 1.304 0 1.739-.434 3.043-1.305 3.043-7.392 10.435-9.13zm-16.957 6.522c.435 0 .435 0 .435-.435h1.304v-.435h1.305c0 .435 0 .435.434.435h.435c-.87 0-2.174.435-3.043.87-.435 0-.435-.435-.87-.435z" fill="#E6E6E6"/><path d="M123.913 46.522c0-.435.435-.435.87 0 0 .435 0 .435-.435.87l-5.218 4.347h-.87v-.87l5.653-4.347z" fill="#B3B3B3" fill-rule="nonzero"/><path d="M58.26 30c-.434.87-1.303 1.74-1.303 2.174-.87 1.739-1.305 3.043-2.174 4.348-.87 2.174-1.74 4.348-3.044 6.521l1.304.435c.435.435.435.87.435 1.305v3.478c0 .435-.435.87-.87 1.304l-10 5.218h-1.304c-.434-.435-.87-.87-.87-1.305v-2.174l5.218-7.826c.87-1.739 1.74-3.478 3.044-4.782 0-.87.434-1.305.87-2.174 0 0 .434-.435.434-.87V32.61c-.435-2.609-.435-5.218 1.74-6.957.869-.87 3.043-1.304 4.347-1.739l4.783-6.956c0-.435.87-.435 1.304-.435h.435l9.13-13.044c.435-.435.87-.87 1.74-.87l1.304 1.305c.434 3.044-3.044 10.87-4.348 13.478-1.305 2.609-2.609 4.783-3.913 7.392-.435.87-.87 1.739-1.74 2.608-.434.435-.869 1.305-1.304 1.74l-.435.434c-.87.87-2.173.87-3.478.435h-1.304z" fill="#666"/><path d="M57.391 28.696C56.087 29.13 50 43.478 50 43.478l2.174 1.305-.435 3.478-9.565 4.782-.435-.87s9.565-14.347 9.565-16.086c.87-2.609-1.304-6.957 1.305-9.13 1.304-.87 4.782-1.74 4.782-1.74l4.783-7.39h1.304l9.565-13.48c.87 3.48-8.26 21.305-10.87 23.914-.869.87-3.477 0-4.782.435z" fill="#CCC"/><path d="M58.696 28.26c-.87 0-1.305-.869-1.305-1.738 0-3.913 0-8.261.435-12.174C58.261 10.87 59.13 3.043 61.74.435 62.174 0 62.61 0 63.48 0c.434.435.869.87.869 1.304l1.739 21.74V34.782c0 1.739 0 3.913.87 5.652 0 .435 0 .87.434 1.304.87 1.304.87 3.044-.434 3.913-1.74.87-3.479.435-4.348-.87-1.305-1.739-1.305-4.782-1.305-6.521 0-1.74 0-6.957-.434-8.261-.435-.87-1.305-1.74-2.174-1.74z" fill="#666"/><path d="M62.609 1.74l1.739 21.738v11.305c0 1.739.435 4.347.87 6.087.434.434.434.87.869 1.304 1.74 3.043-3.478 4.348-3.478-3.913.434-2.609.434-7.391-.435-9.13-1.304-2.174-3.478-2.61-3.478-2.61.434-4.782.87-21.738 3.913-24.782z" fill="#CCC"/><path d="M37.826 7.826c0 .435.435.87.435.87V10s.435.435.435.87v.87s.434.434.434.869v.87c.435.434.435.434.435.869v1.304c.435 0 .435.435.435.435.435.435.435.87 0 1.304.435 0 .435.435.87.87 0 .435 0 .435-.435.87l.87.869v.87c0 .434.434.87.434.87v1.303s.435.435.435.87v.87s.435.434.435.87v.869c0 .435.434.435.434.87v.869c.435.435.435.87.435.87v1.304c.435 0 .435.435.435.87.435.434.435.434 0 .869l.87.87c0 .434 0 .869-.435.869l.87.87c0 .434 0 .87-.435 1.304.434 0 .87.435.87.87v.87s.434.434.434.869v.87c0 .434.435.434.435.869v1.304l.435.435v1.305c.434 0 .434.434.434.869s.435.87.435 1.304l1.74 9.13c0 .87-.436 1.74-1.305 1.74l-9.565 2.174h-.87c-.435-.435-.87-.87-.87-1.305-1.304-7.826-2.608-16.087-3.913-24.348-.87-5.217-1.304-10.434-2.173-16.086-.435-1.74-.435-3.479-.87-5.218 0-.87 0-1.304-.435-1.739V8.696c.435-2.174 2.609-5.218 3.913-6.957.435-.435.87-.435 1.74-.435.434 0 .869.435.869.87.435 1.739 1.304 3.043 1.74 4.783v.87z" fill="#666"/><path d="M34.783 3.043c.434 1.305.87 3.044 1.304 4.348l-.87.435-.87.87v.434h2.175l-.435.87-1.304.435.434.435h.87l.87.434-.435.435-1.305.435.435.435.87.434h1.304l-.87.435-1.304.87.435.435h2.174l-.87.434-.87.87v.435h2.175l-.87.87-.87.434v.435h1.305l.87.435-.87.434-.87.435v.87h2.175l-.87.435-.87.87v.434H40l-.87.435-.87.87v.434h1.305l.87.435-.435.435-1.304.434.434.435.87.435h.87l-.435.435-1.305.87.435.434h2.174l-.87.435-1.304.87.435.434h2.174l-.87.87-.87.435v.434h1.305l.87.435-.87.435-.87.435v.87h2.175l-.87.434-.87.87v.434h2.175l-.87.435-.87.87v.435h1.304l.87.434-.87.435-.87.435v.435l1.305.434h.87l-.435.435-1.304.87v.435h2.174l-.435.434-1.305.87.435.435h2.174l-.87.87-1.304.434.435.435h1.304l.87.435v1.304l1.74 8.696-9.131 2.608S31.304 10.87 31.304 8.696c0-2.174 3.479-5.653 3.479-5.653z" fill="#CCC"/><path d="M89.565 42.609c-.435 0-.435-.435-.435-.435l-3.478-7.826-2.609-5.218c-.87-2.608-2.173-5.217-3.043-7.826-.435-1.739-1.304-3.913-1.74-6.087-.434-2.608-.434-7.826 0-10.434 0-.435.436-.87.87-1.305h1.305c3.478 1.74 5.217 3.044 7.391 6.087 2.174 2.609 3.913 6.087 5.217 9.565 1.305 3.044 2.174 6.087 3.479 9.13 1.304 4.349 2.608 8.697 4.348 13.044l3.913 10.435c.434.435.434.87 0 1.304 0 .435-.435.435-.87.87l-7.826 1.74c-.87 0-1.74-.436-2.174-.87L89.13 44.348c0-.435 0-1.305.435-1.74zM77.826 66.522l3.913-3.479c.435-.434.87-.434 1.304-.434.435 0 .87 0 1.305.434 1.304 2.174 2.609 3.914 4.348 6.087 1.739 2.61 3.913 4.783 6.087 7.392 3.913 4.782 7.39 10.435 6.521 16.521-.434.87-.87 1.305-1.304 1.305-.87 0-1.304 0-1.74-.87-1.738-2.608-3.912-4.782-6.086-7.391-1.74-1.74-3.913-3.913-6.087-5.652-3.478-3.913-6.087-7.392-8.26-12.174-.436-.435-.436-1.304 0-1.74zm15.217 15.217l-.87-.87c0-.434 0-.869.436-.869 0-.435.434-.435.87 0l.869.87v1.304c-.435 0-.87 0-1.305-.435z" fill="#666"/><path d="M79.13 67.826l3.913-3.913s2.174 3.913 4.348 6.087c4.783 6.522 13.479 13.913 12.174 22.609C92.61 82.174 84.348 78.696 79.13 67.826zM93.043 81.74l-.87-.87c0-.434 0-.869.436-.869 0-.435.434-.435.87 0l.869.87v1.304c-.435 0-.87 0-1.305-.435z" fill="#CCC"/><path d="M76.087 79.565c-1.304-.87-1.74-1.739-1.74-3.043v-1.305c.436-.87 1.305-1.304 2.175-1.739h-.87c-.87 0-1.304-.87-1.304-1.739v-4.782c0-.435.435-.87.87-1.305L80 61.304c.435-.434 1.304-.434 1.74-.434.434.434.869.87.869 1.739 0 1.739.434 3.478.434 5.217v6.087c0 .435 0 .87-.434 1.304 0 .435-.435.87-1.305 1.305.87.87 1.74 1.739 1.74 3.043 0 .435 0 .87-.435 1.305 0 .434-.435.87-1.305 1.304.87.87 1.74 1.739 1.74 3.043 0 .435 0 .87-.435.87 0 .87-.435 1.304-1.305 1.74.87.869 1.74 1.738 1.74 3.043 0 .434 0 .87-.435.87 0 .869-.435 1.303-1.305 1.738.87.87 1.74 1.74 1.74 2.609v.435c0 .87-.435 1.304-.87 1.739-.435.87-.87.87-1.74 1.304-1.304.435-3.912.435-4.347-1.304-.435-.435-.435-.435 0-.87 0-.434 0-.434.435-.87-1.305-.434-2.174-1.304-2.174-3.043v-1.304c.435-.435.87-.87 1.739-1.304-1.304-.87-1.74-1.74-1.74-3.044v-1.304c.436-.435.87-.87 1.74-1.305-1.304-.87-1.74-1.739-1.74-3.043V80.87c.436-.435.87-.87 1.74-1.305z" fill="#666"/><path d="M79.565 79.565c-1.304.87-3.478 1.305-3.913 2.609 0 1.739 2.609 2.174 3.913 3.043-1.304.87-3.478 1.305-3.913 2.61 0 1.738 2.609 2.173 3.913 3.043-1.304.87-3.478.87-3.913 2.608 0 1.74 2.609 2.174 3.913 3.044-.435 0-1.304.435-1.739.87-.435 0-.435.434-.435.434 0 .87 3.913.87 3.913-1.304v-.435c0-1.304-2.174-1.74-3.478-2.609 1.304-.435 3.478-1.304 3.478-2.608 0-1.74-2.174-2.174-3.478-3.044 1.304-.435 3.478-1.304 3.478-2.609 0-1.739-2.174-2.174-3.478-3.043 1.304-.435 3.478-1.304 3.478-2.609 0-1.739-2.174-2.174-3.478-3.043 1.304-.435 3.478-.87 3.478-2.609v-.435c.435-.87-.434-10.87-.434-10.87l-4.783 4.349v4.782l3.478.87.435.87c-.87 1.304-3.913 1.304-4.348 3.043 0 1.739 2.609 2.174 3.913 3.043z" fill="#CCC"/><path d="M65.652 93.043l-3.913 1.305h-1.304c-.435-.435-.87-.87-.87-1.305l-.87-3.913v-.87L70.87 64.349c0-.435.434-.435.87-.87.434 0 .869 0 1.303.435l6.087 3.044c0 .434.435.434.435.87.435.434.435.869 0 1.303L66.522 92.174c-.435.435-.435.87-.87.87z" fill="#666"/><path fill="#CCC" d="M65.217 91.304l-3.913 1.74L60 88.695l12.174-23.479 6.087 3.044z"/><path d="M36.087 58.696v.434c-.435.87-1.304.87-2.174.435h-.435c-.435-.435-.87-.435-.87-.435-1.304-.87-2.608-1.739-3.912-2.173-1.74-.87-3.044-1.74-4.783-2.174-2.609-1.305-5.217-3.044-7.826-4.348-4.783-2.174-8.696-3.913-12.174-7.392C2.173 41.304 1.304 40 .435 37.391c-.435-.87.435-1.739.87-1.739 2.608-.87 4.347-.87 6.521-.435 2.609.435 5.217 1.305 7.391 2.174 1.74.87 3.913 2.174 5.653 3.044 2.608 1.304 5.652 3.043 8.26 4.348l5.218 2.608h1.304c1.305.87 2.174 1.305 3.478 2.174.435 0 .87.435.87.87v1.304l-2.174 3.913-1.739 3.044z" fill="#666"/><path d="M36.522 54.783l2.174-3.913s-1.305-.435-3.479-1.74l-1.304.87v-1.304c-2.174-.87-4.348-1.74-5.652-2.609-2.609-1.304-4.348-2.174-7.826-4.348-3.913-1.739-7.826-4.348-12.609-5.217-2.174-.435-3.913 0-5.652.435.435 2.173 1.304 3.478 2.609 5.217 3.478 3.478 8.26 5.217 11.739 6.956 3.913 1.74 5.217 2.61 8.26 3.913 2.61 1.74 10.435 5.653 10 5.218l1.74-3.478z" fill="#CCC"/><path d="M23.913 65.217l4.783-2.608s.434-1.305 0-1.74c0 0-.435-.434-.87-.434-.435.435-.87 1.304-1.304 1.739 0 .435-.435.435-.87.87-.435 0-.87 0-1.304-.435-1.305-.87-1.305-2.609-.87-3.913.87-2.174 2.174-3.913 4.348-4.348.87-.435 1.74-.435 2.174-.435 1.304 0 2.609.435 3.478.435 1.305.435 2.174.435 3.044.87.87.434 1.739.434 2.174 1.304 0 .435.434.435.434.87v6.956c0 .87-.434 1.304-.87 1.304-1.738 1.305-3.477 2.174-5.217 3.044-1.304.87-2.608 1.304-3.913 1.739-1.739.87-3.478 1.739-5.652 1.739-1.304 0-3.043-.435-4.348-.87-1.739-.87-2.608-1.739-4.347-3.043-.87-.87-1.74-3.044-2.61-3.913 0-.87 0-1.305.436-1.74.434-.434.87-.869 1.304-.869l8.696 2.174c.434 0 .87.87 1.304 1.304z" fill="#666"/><path d="M37.391 57.391v6.957s-5.652 3.478-9.13 4.782c-1.304.87-3.044 1.305-4.783 1.305-1.304 0-2.608 0-3.913-.87-1.304-.435-1.739-.87-3.478-2.608-.87-.87-2.174-3.479-2.174-3.479l8.26 2.174c0 1.305 1.74 1.74 2.61 1.305l4.782-3.044c.435 0 1.305-2.174.87-3.478-.87-1.305-2.174-1.74-3.044-1.305-.87 0-2.174 2.174-2.174 2.174s-.87-.434 0-2.174c.435-1.739 1.305-2.608 3.044-3.478H30c2.609 0 7.391 1.74 7.391 1.74zM80 15.217c.435 1.74.87 3.479 1.74 5.653 1.738 5.652 4.347 10.434 5.217 12.608l3.478 7.826.87.87-.435 1.304 4.782 10.435 7.826-1.74s-2.608-6.086-3.913-10.434c-1.739-4.348-2.608-6.956-4.782-13.043-2.174-5.653-3.479-12.609-8.261-18.261C84.348 7.826 83.043 6.522 80 5.217c-.87 2.174-.435 7.392 0 10z" fill="#CCC"/><path d="M80 15.217c.435 1.74.87 3.479 1.74 5.653 1.738 5.652 4.347 10.434 5.217 12.608l3.478 7.826.87.87-.435 1.304 4.782 10.435 7.826-1.74s0-.434-.435-.869l-6.521 1.74-4.783-10.435.87-1.305-1.305-.87-3.478-7.825c-.87-2.174-3.478-6.957-5.217-12.609-.87-2.174-1.305-3.913-1.74-6.087-.434-1.74-.434-5.652-.434-8.696H80c-.87 2.174-.435 7.392 0 10z" fill="#E6E6E6"/><path d="M45.217 70c-6.087 0-10.87-4.783-10.87-11.304 0-6.087 4.783-10.87 10.87-10.87H100c6.522 0 11.304 4.783 11.304 10.87C111.304 65.217 106.522 70 100 70H45.217z" fill="#666"/><path d="M45.217 68.26c-5.217 0-9.565-3.912-9.565-9.564 0-5.218 4.348-9.566 9.565-9.566H100c5.217 0 9.565 4.348 9.565 9.566 0 5.652-4.348 9.565-9.565 9.565H45.217z" fill="#E2411E"/><path d="M35.652 59.565v-.87c0-5.217 4.348-9.565 9.565-9.565H100c5.217 0 9.565 4.348 9.565 9.566v.87c-.435-4.783-4.348-8.696-9.565-8.696H45.217c-4.782 0-9.13 3.913-9.565 8.695z" fill="#F2572F"/><path fill="#E6E6E6" d="M93.913 53.913h3.044v3.478H100v3.044h-3.043v3.043h-3.044v-3.043h-3.478V57.39h3.478z"/><path d="M35.652 58.26v.436c0 5.652 4.348 9.565 9.565 9.565H100c5.217 0 9.565-3.913 9.565-9.565v-.435c-.435 4.782-4.348 8.696-9.565 8.696H45.217c-4.782 0-9.13-3.914-9.565-8.696z" fill="#D43618"/><path d="M50.87 44.348l1.304.435v.434l-1.304-.87zm-3.479-.435c1.74-3.478 3.913-6.956 3.913-7.826.87-2.609-1.304-6.957 1.305-9.13 1.304-.87 4.782-1.74 4.782-1.74v-.434 1.739c-1.304 0-3.043.87-3.478 1.304-2.609 2.174-.87 6.522-1.304 9.13-.435.87-2.609 4.783-4.783 8.261 0-.434-.435-.434-.435-.87v-.434zm17.826-28.26l7.826-11.305c0 .435 0 1.739-.434 3.043l-6.957 10-.435-1.739zM62.609 1.74l.434 2.173C60.435 8.696 60 22.173 60 26.957c-.87 0-1.304-.435-1.304-.435.434-4.783.87-21.74 3.913-24.783zm2.174 42.608c-.87-.435-2.174-2.174-2.174-6.087.434-2.609.434-7.391-.435-9.13-.435 0-.435-.435-.435-.435.435 0 .87.87 1.304 1.739.87 1.304.87 6.087.87 8.695-.435 2.61 0 4.348.87 5.218z" fill="#E6E6E6"/><circle fill="#666" transform="rotate(-2.682 61.657 23.644)" cx="61.657" cy="23.644" r="2.457"/><circle fill="#E6E6E6" transform="rotate(-2.682 61.657 23.644)" cx="61.657" cy="23.644" r="1.229"/><path d="M34.783 3.043c-.87 1.305-2.61 3.044-2.61 4.783 0 1.74 3.914 27.826 6.088 41.304-.435-.434-.87-.434-1.304-.87-1.74-13.477-5.653-37.825-5.653-39.564 0-2.174 3.479-5.653 3.479-5.653zM3.043 36.522c-.434.435-.87.435-.87.435.436 2.173 1.305 3.478 2.61 5.217 3.478 3.478 8.26 5.217 11.739 6.956 3.913 1.74 5.217 2.61 8.26 3.913.435.435 1.74.87 2.61 1.305h.434c.435 0 .87-.435 1.304-.435-1.304-.435-2.608-1.304-3.478-1.74-2.609-1.303-4.348-2.173-8.26-3.912-3.479-2.174-7.827-3.913-11.305-7.391-1.74-1.305-2.174-2.61-3.044-4.348zM36.087 65.217c-1.74 1.305-5.652 3.044-7.826 3.913-1.304.87-3.044 1.305-4.783 1.305-1.304 0-2.608 0-3.913-.87-1.304-.435-1.739-.87-3.478-2.608-.87-.87-2.174-3.479-2.174-3.479h.435c.435.87 1.304 2.174 1.739 2.609 1.74 1.74 2.174 2.174 3.478 2.609 1.305.434 2.609.87 3.913.87 1.74 0 3.479-.87 4.783-1.305 2.174-.87 5.652-2.609 7.391-3.913 0 .435.435.87.435.87zm-5.652-4.347v-.435c-.87-1.305-2.174-1.74-3.044-1.305-.87 0-2.174 2.174-2.174 2.174s-.434-.434-.434-1.739c.434.435.434.87.434.87s1.305-2.174 2.174-2.609c.87 0 2.174.435 3.044 1.74v1.304zM65.217 91.304l-3.913 1.74-.434-1.305 3.043-1.304L75.653 70h1.738zM87.391 70c4.783 6.522 13.479 13.913 12.174 22.609l-.87-.87c0-7.826-7.825-14.782-12.608-20.87 0 0-.435-.434-.435-.869h1.74z" fill="#E6E6E6"/><path d="M92.174 82.609l-.87-.87c-.87-.87-.434-2.174.435-3.043.87-.435 2.174-.435 2.609.434l.87 1.305c.869.87.434 2.174-.435 2.608-.87.87-1.74.435-2.61-.434zm.87-.87l-.87-.87c0-.434 0-.869.435-.869 0-.435.434-.435.87 0l.869.87v1.304c-.435 0-.87 0-1.305-.435z" fill="#666"/><path d="M77.826 97.391c-.435 0-.435.435-.435.435 0 .87 3.913.87 3.913-1.304v-.435c0-.435-.434-.87-.87-1.304v.434c0 1.305-1.304 2.174-2.608 2.174zm.435-3.913c1.304-.87 3.043-1.304 3.043-2.608 0-.87-.434-1.305-.87-1.74v.435c0 1.74-2.173 2.174-3.477 3.044.434 0 .87.434 1.304.87zm0-5.652c1.304-.87 3.043-1.304 3.043-2.609 0-.87-.434-1.304-.87-1.739v.87c0 1.304-2.173 2.174-3.477 2.609.434.434.87.434 1.304.87zm0-5.652c1.304-.87 3.043-1.304 3.043-2.609 0-.87-.434-1.304-.87-1.739v.87c0 1.304-2.173 2.174-3.477 2.608.434.435.87.435 1.304.87zm0-5.652c1.304-.435 3.043-1.305 3.043-2.609v-.435c.435-.435.435-1.739 0-3.478h-.87v3.043c0 1.305-2.173 2.174-3.477 2.61.434.434.87.434 1.304.869z" fill="#E6E6E6"/><path d="M26.522 69.13c-.435 0-.87 0-.87-.434 0-.435 0-.435.435-.87l6.087-2.609c.435-.434.87 0 .87 0 0 .435 0 .87-.435.87l-6.087 3.043zM12.609 45.652c-.435 0-.435-.435-.435-.435.435-.434.435-.87.87-.434l10 4.782c.434 0 .434.435.434.87-.435.435-.87.435-.87.435l-10-5.218zM34.348 21.304c0-.434 0-.87.435-.87.434 0 .434.436.87.87l1.304 10.87c0 .435 0 .87-.435.87s-.435-.435-.87-.435l-1.304-11.305zM89.13 20.435c0-.435.435-.87.435-.87.435-.435.87 0 .87.435l3.913 11.304c.435 0 0 .435 0 .87-.435 0-.87-.435-.87-.435L89.13 20.435z" fill="#B3B3B3" fill-rule="nonzero"/><path d="M93.913 53.913h3.044v.435h-2.61v3.478H90.87v2.609h-.435V57.39h3.478v-3.478zm3.478 3.478H100v.435h-2.609v-.435zm-3.043 6.087h-.435V60.87h.435v2.608z" fill="#B3B3B3"/><path d="M36.087 55.652h4.783c.87 0 1.304.87 1.304 1.74v3.043c0 .87-.435 1.739-1.304 1.739h-4.783c-.87 0-1.74-.87-1.74-1.74V56.957c0-.434.87-1.304 1.74-1.304z" fill="#666"/><path d="M36.087 57.391h4.783v3.044h-4.783c-.435-.435-.435-.87-.435-1.74 0-.434 0-.869.435-1.304z" fill="#CCC"/><path d="M36.087 57.391h.435v3.044h-.435c-.435-.435-.435-.87-.435-1.74 0-.434 0-.869.435-1.304z" fill="#B3B3B3"/><path d="M179.544 73.704c-18.432-.512-23.68-5.824-23.68-15.744 0-9.216 6.144-16.384 13.952-16.384 8.128 0 12.48 6.784 11.328 16.192l-22.528.64c.256 8.448 4.928 12.224 21.312 12.736l-.384 2.56zm-10.24-29.696c-6.144 0-10.304 4.736-10.688 12.352l19.968-.576c.256-6.976-2.944-11.776-9.28-11.776zM213.768 73l.256-2.24h-10.688V28.456H190.92l-.256 1.984 9.856.448V70.76h-10.624V73h23.872zm32.176.704c-18.432-.512-23.68-5.824-23.68-15.744 0-9.216 6.144-16.384 13.952-16.384 8.128 0 12.48 6.784 11.328 16.192l-22.528.64c.256 8.448 4.928 12.224 21.312 12.736l-.384 2.56zm-10.24-29.696c-6.144 0-10.304 4.736-10.688 12.352l19.968-.576c.256-6.976-2.944-11.776-9.28-11.776zm29.696.064c2.816 0 3.712 1.536 3.712 5.376V73h2.816V48.296c0-.64-.064-1.216-.128-1.792 1.792-1.6 3.904-2.432 5.568-2.432 2.816 0 3.712 1.536 3.712 5.504V73h2.816V48.36c0-4.608-2.176-6.72-5.504-6.72-2.624 0-5.248 1.536-7.04 3.2-.832-2.176-2.624-3.2-4.928-3.2-2.624 0-5.248 1.6-7.04 3.584l-.256-3.008-2.56.192c.256 7.232.384 17.664.384 30.592h2.816c0-11.84-.128-20.416-.32-25.792 1.984-2.048 4.288-3.136 5.952-3.136zm50.944 29.632c-18.432-.512-23.68-5.824-23.68-15.744 0-9.216 6.144-16.384 13.952-16.384 8.128 0 12.48 6.784 11.328 16.192l-22.528.64c.256 8.448 4.928 12.224 21.312 12.736l-.384 2.56zm-10.24-29.696c-6.144 0-10.304 4.736-10.688 12.352l19.968-.576c.256-6.976-2.944-11.776-9.28-11.776zm35.904.064c4.736 0 7.552 2.496 7.552 9.024V73h2.816V52.328c0-7.552-3.84-10.688-9.6-10.688-4.544 0-8.064 1.92-10.816 4.032l-.256-3.456-2.56.192c.256 7.232.384 17.664.384 30.592h2.816c0-11.968-.128-20.096-.32-25.408 3.008-2.112 6.208-3.52 9.984-3.52zm44.696 27.008c-11.392-.192-14.464-1.92-14.464-7.872V44.584H386V42.28h-13.76v-9.088l-2.816.256v8.832h-6.08l-.384 2.304h6.464v19.072c0 7.168 4.416 9.92 17.024 9.92l.256-2.496z" fill="#666"/></g></svg>