<svg xmlns="http://www.w3.org/2000/svg" width="112" height="28" viewBox="0 0 112 28">
  <g fill="none" fill-rule="evenodd" transform="translate(-2)">
    <g transform="translate(0 1.145)">
      <path fill="#CDD3DE" d="M11.2115205,3.76294281 L26.9215149,3.76294281 C32.127349,3.76294281 36.3475114,8.00646781 36.3475114,13.2411212 C36.3475114,18.4757745 32.127349,22.7192995 26.9215149,22.7192995 L11.2115205,22.7192995 C6.00568638,22.7192995 1.78552396,18.4757745 1.78552396,13.2411212 C1.78552396,8.00646781 6.00568638,3.76294281 11.2115205,3.76294281 Z" transform="rotate(-13 19.067 13.241)"/>
      <path fill="#D62B1E" d="M11.6827057,7.67281106 L27.3927,7.67281106 C32.5985342,7.67281106 36.8186966,11.9163361 36.8186966,17.1509894 C36.8186966,22.3856428 32.5985342,26.6291678 27.3927,26.6291678 L11.6827057,26.6291678 C6.47687155,26.6291678 2.25670914,22.3856428 2.25670914,17.1509894 C2.25670914,11.9163361 6.47687155,7.67281106 11.6827057,7.67281106 Z"/>
      <polygon fill="#FFF" points="25.169 18.788 25.169 15.648 21.165 15.648 21.165 11.622 18.043 11.622 18.043 15.648 14.039 15.648 14.039 18.788 18.043 18.788 18.043 22.814 21.165 22.814 21.165 18.788"/>
    </g>
    <path fill="#000" fill-rule="nonzero" d="M.291905998 24.564196L2.71867021 21.704081 3.00444136 22.3795401C3.83809774 24.3500007 5.11451737 25.2981981 6.88854587 25.2981981 7.80064605 25.2981981 8.56692943 25.0069208 9.20967924 24.4184879 9.84596266 23.8359749 10.1533833 23.1821647 10.1533833 22.4326487 10.1533833 21.8950419 10.0105913 21.4498667 9.72549579 21.0809196 9.40572471 20.6670982 8.59383993 19.9253763 7.30997134 18.8822329 6.0751214 17.8776093 5.23857235 17.0831507 4.79109978 16.4828827 4.31242403 15.8407566 4.0719191 15.095778 4.0719191 14.2626008 4.0719191 13.2080495 4.38161296 12.2282908 4.99603185 11.3345906 5.60097833 10.4546684 6.40865692 9.74588924 7.41339424 9.2107574 8.42029355 8.67447408 9.48623304 8.40524194 10.6049962 8.40524194 11.6188882 8.40524194 12.485986 8.66364856 13.1920379 9.18450652 13.9293748 9.72844353 14.3123425 10.4504319 14.3123425 11.3140121 14.3123425 12.4312286 13.8109001 13.2412509 12.8433234 13.6630152L12.2911632 13.9037004 12.2148881 13.306212C12.1051421 12.4465347 11.7899178 11.7938873 11.2707035 11.3274744 10.7531699 10.8625714 10.0882525 10.6291898 9.25355973 10.6291898 8.52243945 10.6291898 7.89570647 10.8614754 7.35367581 11.3324201 6.8234499 11.7931082 6.57229713 12.2912965 6.57229713 12.8497354 6.57229713 13.5500488 7.03121902 14.2825587 8.00216447 15.0481631L9.77884415 16.4879392C11.6181153 17.9377177 12.5616179 19.4584219 12.5616179 21.0504977 12.5616179 22.2034571 12.2338365 23.2868025 11.5828654 24.2908426 10.9366572 25.2875367 10.0601722 26.0818512 8.95970398 26.6702204 7.86051377 27.2579062 6.69708343 27.5528604 5.47568044 27.5528604 3.50432035 27.5528604 1.83723112 26.6415183.506162498 24.8522129L.291905998 24.564196zM24.0858817 9.56550598L27.796192 7.89382773 27.8229339 8.56237457 27.8536939 9.33141535C28.0171959 13.7050935 28.1908403 16.8409062 28.3726677 18.7216116 28.4343196 19.2148267 28.4959539 19.7335824 28.5575755 20.2779063 28.619207 20.8223177 28.6654724 21.2489879 28.6964157 21.558421 28.7262773 21.8570371 28.7713356 22.2024835 28.8316206 22.5943362 28.8927545 22.9917066 28.9335282 23.2516392 28.9470171 23.339826 29.0675236 23.8369153 29.2024677 24.0081905 29.3066932 24.0081905 29.8020236 24.0081905 31.0352422 22.5860111 32.7329722 19.82724 34.3913034 17.189894 35.2129747 14.9822712 35.2129747 13.218309 35.2129747 11.8635402 34.7856924 10.9199586 33.9344415 10.3347236L33.467886 10.0139667 36.5593964 7.16652291 36.8644659 7.51517383C37.6571648 8.42111537 38.0512118 9.59199791 38.0512118 11.0068674 38.0512118 12.5085776 37.6373053 14.1960424 36.8153765 16.0717262 36.0037413 17.9239193 34.8014833 19.9864136 33.2059787 22.2656589 32.2135912 23.6508664 31.3020593 24.8006396 30.4750156 25.7102999 29.4946613 26.824339 28.6667346 27.3992881 27.9245422 27.3992881 27.3047035 27.3992881 26.8155964 27.0954488 26.5130215 26.5315592 26.2551588 26.0509968 26.0696616 25.2926408 25.9405788 24.2384642L25.4423282 20.1845159C24.6980956 21.5456797 23.8756821 22.8346093 22.9760219 24.0499218 21.3576796 26.2724453 20.0448531 27.3992881 18.9252037 27.3992881 18.3292462 27.3992881 17.8593764 27.1188819 17.5757685 26.5942072 17.3402425 26.1584842 17.1455924 25.4177322 16.9722176 24.3327052L15.0871996 9.56673092 18.7932418 7.87842281 18.7932418 9.37900076C18.7932418 10.8233067 18.833897 12.1649287 18.9151318 13.4037597 18.9966692 14.6472047 19.1498723 16.4243604 19.3742978 18.7299961 19.6584056 21.4087263 19.8725547 23.0505362 20.0092124 23.6166896 20.1093791 24.031666 20.2170455 24.1617629 20.3073547 24.1617629 20.5411162 24.1617629 21.2237661 23.4933349 22.1504231 22.1867484 23.138453 20.7936263 24.1099127 19.1099529 25.0637436 17.1360495L24.0858817 9.56550598zM43.8808384.685515373C44.5286832.685515373 45.0743529.893389521 45.4901845 1.30922118 45.9060162 1.72505284 46.1138903 2.27072248 46.1138903 2.91856729 46.1138903 3.54896421 45.8932107 4.09417278 45.4594701 4.5279134 45.0267184 4.96066507 44.4921059 5.18233367 43.8808384 5.18233367 43.2865299 5.18233367 42.7531941 4.94818622 42.3022068 4.49719893 41.8512195 4.04621164 41.617072 3.51287578 41.617072 2.91856729 41.617072 2.30729983 41.8387406 1.77268732 42.2714923 1.33993565 42.7052329.906195035 43.2504415.685515373 43.8808384.685515373zM44.6360723 8.69711853L41.9327471 18.8038557C41.4918475 20.4271677 41.272818 21.721433 41.272818 22.6783644 41.272818 23.2628467 41.3698864 23.7217155 41.5547746 24.0578759 41.6196553 24.1758408 41.8538072 24.4796353 42.1861822 24.8791882 42.2213957 24.9214665 42.2213957 24.9214665 42.2567355 24.9636984 42.4263353 25.1661514 42.6084264 25.3787952 42.7905662 25.5883483 42.8998507 25.7140809 42.9847115 25.8106664 43.0328429 25.8650022L43.3737173 26.2498172 42.9481934 26.538274C42.804953 26.6353747 42.5801318 26.7773143 42.3227257 26.9202052 42.2170073 26.9788914 42.1139223 27.03288 42.0143427 27.0812158 41.6774249 27.2447551 41.4007758 27.3378591 41.1590642 27.3378591 40.3649501 27.3378591 39.6933385 26.9348922 39.1735452 26.1733344 38.678972 25.4487272 38.4345809 24.5564154 38.4345809 23.507655 38.4345809 22.8592452 38.5603258 21.8637647 38.8102975 20.5097762L40.788832 9.51791751 44.8736316 7.80897073 44.6360723 8.69711853zM43.6504935 24.564196L46.0772577 21.704081 46.3630289 22.3795401C47.1966853 24.3500007 48.4731049 25.2981981 50.2471334 25.2981981 51.1592336 25.2981981 51.925517 25.0069208 52.5682668 24.4184879 53.2045502 23.8359749 53.5119708 23.1821647 53.5119708 22.4326487 53.5119708 21.8950419 53.3691788 21.4498667 53.0840833 21.0809196 52.7643122 20.6670982 51.9524275 19.9253763 50.6685589 18.8822329 49.4337089 17.8776093 48.5971599 17.0831507 48.1496873 16.4828827 47.6710116 15.8407566 47.4305066 15.095778 47.4305066 14.2626008 47.4305066 13.2080495 47.7402005 12.2282908 48.3546194 11.3345906 48.9595659 10.4546684 49.7672444 9.74588924 50.7719818 9.2107574 51.7788811 8.67447408 52.8448206 8.40524194 53.9635837 8.40524194 54.9774758 8.40524194 55.8445735 8.66364856 56.5506254 9.18450652 57.2879623 9.72844353 57.67093 10.4504319 57.67093 11.3140121 57.67093 12.4312286 57.1694876 13.2412509 56.2019109 13.6630152L55.6497507 13.9037004 55.5734756 13.306212C55.4637296 12.4465347 55.1485053 11.7938873 54.629291 11.3274744 54.1117575 10.8625714 53.44684 10.6291898 52.6121473 10.6291898 51.881027 10.6291898 51.254294 10.8614754 50.7122633 11.3324201 50.1820374 11.7931082 49.9308847 12.2912965 49.9308847 12.8497354 49.9308847 13.5500488 50.3898065 14.2825587 51.360752 15.0481631L53.1374317 16.4879392C54.9767028 17.9377177 55.9202055 19.4584219 55.9202055 21.0504977 55.9202055 22.2034571 55.5924241 23.2868025 54.9414529 24.2908426 54.2952447 25.2875367 53.4187597 26.0818512 52.3182915 26.6702204 51.2191013 27.2579062 50.055671 27.5528604 48.834268 27.5528604 46.8629079 27.5528604 45.1958186 26.6415183 43.86475 24.8522129L43.6504935 24.564196zM55.8407237 24.564196L58.2674879 21.704081 58.5532591 22.3795401C59.3869155 24.3500007 60.6633351 25.2981981 62.4373636 25.2981981 63.3494638 25.2981981 64.1157472 25.0069208 64.758497 24.4184879 65.3947804 23.8359749 65.702201 23.1821647 65.702201 22.4326487 65.702201 21.8950419 65.559409 21.4498667 65.2743135 21.0809196 64.9545424 20.6670982 64.1426577 19.9253763 62.8587891 18.8822329 61.6239391 17.8776093 60.7873901 17.0831507 60.3399175 16.4828827 59.8612418 15.8407566 59.6207368 15.095778 59.6207368 14.2626008 59.6207368 13.2080495 59.9304307 12.2282908 60.5448496 11.3345906 61.1497961 10.4546684 61.9574746 9.74588924 62.962212 9.2107574 63.9691113 8.67447408 65.0350508 8.40524194 66.1538139 8.40524194 67.167706 8.40524194 68.0348037 8.66364856 68.7408556 9.18450652 69.4781925 9.72844353 69.8611602 10.4504319 69.8611602 11.3140121 69.8611602 12.4312286 69.3597178 13.2412509 68.3921411 13.6630152L67.8399809 13.9037004 67.7637058 13.306212C67.6539598 12.4465347 67.3387355 11.7938873 66.8195212 11.3274744 66.3019877 10.8625714 65.6370703 10.6291898 64.8023775 10.6291898 64.0712572 10.6291898 63.4445242 10.8614754 62.9024935 11.3324201 62.3722676 11.7931082 62.1211149 12.2912965 62.1211149 12.8497354 62.1211149 13.5500488 62.5800367 14.2825587 63.5509822 15.0481631L65.3276619 16.4879392C67.166933 17.9377177 68.1104357 19.4584219 68.1104357 21.0504977 68.1104357 22.2034571 67.7826543 23.2868025 67.1316831 24.2908426 66.4854749 25.2875367 65.6089899 26.0818512 64.5085217 26.6702204 63.4093315 27.2579062 62.2459012 27.5528604 61.0244982 27.5528604 59.0531381 27.5528604 57.3860488 26.6415183 56.0549802 24.8522129L55.8407237 24.564196z" transform="translate(43.355)"/>
  </g>
</svg>
