<svg xmlns="http://www.w3.org/2000/svg" width="120" height="28" viewBox="0 0 120 28">
  <g fill="none" fill-rule="evenodd">
    <g transform="translate(-2 1.145)">
      <path fill="#CDD3DE" d="M11.2115205,3.76294281 L26.9215149,3.76294281 C32.127349,3.76294281 36.3475114,8.00646781 36.3475114,13.2411212 C36.3475114,18.4757745 32.127349,22.7192995 26.9215149,22.7192995 L11.2115205,22.7192995 C6.00568638,22.7192995 1.78552396,18.4757745 1.78552396,13.2411212 C1.78552396,8.00646781 6.00568638,3.76294281 11.2115205,3.76294281 Z" transform="rotate(-13 19.067 13.241)"/>
      <path fill="#D62B1E" d="M11.6827057,7.67281106 L27.3927,7.67281106 C32.5985342,7.67281106 36.8186966,11.9163361 36.8186966,17.1509894 C36.8186966,22.3856428 32.5985342,26.6291678 27.3927,26.6291678 L11.6827057,26.6291678 C6.47687155,26.6291678 2.25670914,22.3856428 2.25670914,17.1509894 C2.25670914,11.9163361 6.47687155,7.67281106 11.6827057,7.67281106 Z"/>
      <polygon fill="#FFF" points="25.169 18.788 25.169 15.648 21.165 15.648 21.165 11.622 18.043 11.622 18.043 15.648 14.039 15.648 14.039 18.788 18.043 18.788 18.043 22.814 21.165 22.814 21.165 18.788"/>
    </g>
    <path fill="#000" fill-rule="nonzero" d="M41.6467447 24.564196L44.0735089 21.704081 44.3592801 22.3795401C45.1929365 24.3500007 46.4693561 25.2981981 48.2433846 25.2981981 49.1554848 25.2981981 49.9217681 25.0069208 50.5645179 24.4184879 51.2008014 23.8359749 51.508222 23.1821647 51.508222 22.4326487 51.508222 21.8950419 51.36543 21.4498667 51.0803345 21.0809196 50.7605634 20.6670982 49.9486786 19.9253763 48.66481 18.8822329 47.4299601 17.8776093 46.5934111 17.0831507 46.1459385 16.4828827 45.6672627 15.8407566 45.4267578 15.095778 45.4267578 14.2626008 45.4267578 13.2080495 45.7364517 12.2282908 46.3508706 11.3345906 46.955817 10.4546684 47.7634956 9.74588924 48.7682329 9.2107574 49.7751323 8.67447408 50.8410718 8.40524194 51.9598349 8.40524194 52.9737269 8.40524194 53.8408247 8.66364856 54.5468766 9.18450652 55.2842135 9.72844353 55.6671812 10.4504319 55.6671812 11.3140121 55.6671812 12.4312286 55.1657388 13.2412509 54.1981621 13.6630152L53.6460019 13.9037004 53.5697268 13.306212C53.4599808 12.4465347 53.1447565 11.7938873 52.6255422 11.3274744 52.1080086 10.8625714 51.4430912 10.6291898 50.6083984 10.6291898 49.8772782 10.6291898 49.2505452 10.8614754 48.7085145 11.3324201 48.1782886 11.7931082 47.9271358 12.2912965 47.9271358 12.8497354 47.9271358 13.5500488 48.3860577 14.2825587 49.3570032 15.0481631L51.1336829 16.4879392C52.972954 17.9377177 53.9164567 19.4584219 53.9164567 21.0504977 53.9164567 22.2034571 53.5886752 23.2868025 52.9377041 24.2908426 52.2914959 25.2875367 51.4150109 26.0818512 50.3145427 26.6702204 49.2153525 27.2579062 48.0519221 27.5528604 46.8305192 27.5528604 44.8591591 27.5528604 43.1920698 26.6415183 41.8610012 24.8522129L41.6467447 24.564196zM67.4407204 9.56550598L71.1510307 7.89382773 71.1777726 8.56237457 71.2085327 9.33141535C71.3720346 13.7050935 71.545679 16.8409062 71.7275064 18.7216116 71.7891583 19.2148267 71.8507926 19.7335824 71.9124142 20.2779063 71.9740457 20.8223177 72.0203111 21.2489879 72.0512544 21.558421 72.081116 21.8570371 72.1261743 22.2024835 72.1864593 22.5943362 72.2475932 22.9917066 72.288367 23.2516392 72.3018558 23.339826 72.4223623 23.8369153 72.5573064 24.0081905 72.6615319 24.0081905 73.1568623 24.0081905 74.3900809 22.5860111 76.0878109 19.82724 77.7461421 17.189894 78.5678134 14.9822712 78.5678134 13.218309 78.5678134 11.8635402 78.1405311 10.9199586 77.2892802 10.3347236L76.8227247 10.0139667 79.9142351 7.16652291 80.2193047 7.51517383C81.0120035 8.42111537 81.4060505 9.59199791 81.4060505 11.0068674 81.4060505 12.5085776 80.992144 14.1960424 80.1702152 16.0717262 79.35858 17.9239193 78.156322 19.9864136 76.5608174 22.2656589 75.5684299 23.6508664 74.656898 24.8006396 73.8298543 25.7102999 72.8495 26.824339 72.0215733 27.3992881 71.2793809 27.3992881 70.6595422 27.3992881 70.1704351 27.0954488 69.8678602 26.5315592 69.6099975 26.0509968 69.4245003 25.2926408 69.2954175 24.2384642L68.7971669 20.1845159C68.0529343 21.5456797 67.2305208 22.8346093 66.3308607 24.0499218 64.7125183 26.2724453 63.3996918 27.3992881 62.2800424 27.3992881 61.684085 27.3992881 61.2142152 27.1188819 60.9306072 26.5942072 60.6950812 26.1584842 60.5004311 25.4177322 60.3270563 24.3327052L58.4420383 9.56673092 62.1480805 7.87842281 62.1480805 9.37900076C62.1480805 10.8233067 62.1887357 12.1649287 62.2699705 13.4037597 62.3515079 14.6472047 62.504711 16.4243604 62.7291365 18.7299961 63.0132443 21.4087263 63.2273934 23.0505362 63.3640511 23.6166896 63.4642178 24.031666 63.5718842 24.1617629 63.6621934 24.1617629 63.895955 24.1617629 64.5786048 23.4933349 65.5052619 22.1867484 66.4932917 20.7936263 67.4647514 19.1099529 68.4185823 17.1360495L67.4407204 9.56550598zM89.2356771.685515373C89.8835219.685515373 90.4291916.893389521 90.8450232 1.30922118 91.2608549 1.72505284 91.468729 2.27072248 91.468729 2.91856729 91.468729 3.54896421 91.2480494 4.09417278 90.8143088 4.5279134 90.3815571 4.96066507 89.8469446 5.18233367 89.2356771 5.18233367 88.6413686 5.18233367 88.1080328 4.94818622 87.6570455 4.49719893 87.2060582 4.04621164 86.9719108 3.51287578 86.9719108 2.91856729 86.9719108 2.30729983 87.1935794 1.77268732 87.626331 1.33993565 88.0600716.906195035 88.6052802.685515373 89.2356771.685515373zM89.9909111 8.69711853L87.2875858 18.8038557C86.8466862 20.4271677 86.6276567 21.721433 86.6276567 22.6783644 86.6276567 23.2628467 86.7247251 23.7217155 86.9096134 24.0578759 86.9744941 24.1758408 87.2086459 24.4796353 87.5410209 24.8791882 87.5762344 24.9214665 87.5762344 24.9214665 87.6115742 24.9636984 87.7811741 25.1661514 87.9632651 25.3787952 88.1454049 25.5883483 88.2546894 25.7140809 88.3395502 25.8106664 88.3876816 25.8650022L88.728556 26.2498172 88.3030321 26.538274C88.1597917 26.6353747 87.9349705 26.7773143 87.6775644 26.9202052 87.571846 26.9788914 87.4687611 27.03288 87.3691814 27.0812158 87.0322636 27.2447551 86.7556145 27.3378591 86.5139029 27.3378591 85.7197889 27.3378591 85.0481772 26.9348922 84.5283839 26.1733344 84.0338107 25.4487272 83.7894196 24.5564154 83.7894196 23.507655 83.7894196 22.8592452 83.9151645 21.8637647 84.1651362 20.5097762L86.1436707 9.51791751 90.2284703 7.80897073 89.9909111 8.69711853zM91.0053322 24.564196L93.4320964 21.704081 93.7178676 22.3795401C94.551524 24.3500007 95.8279436 25.2981981 97.6019721 25.2981981 98.5140723 25.2981981 99.2803557 25.0069208 99.9231055 24.4184879 100.559389 23.8359749 100.86681 23.1821647 100.86681 22.4326487 100.86681 21.8950419 100.724018 21.4498667 100.438922 21.0809196 100.119151 20.6670982 99.3072662 19.9253763 98.0233976 18.8822329 96.7885476 17.8776093 95.9519986 17.0831507 95.504526 16.4828827 95.0258503 15.8407566 94.7853453 15.095778 94.7853453 14.2626008 94.7853453 13.2080495 95.0950392 12.2282908 95.7094581 11.3345906 96.3144046 10.4546684 97.1220832 9.74588924 98.1268205 9.2107574 99.1337198 8.67447408 100.199659 8.40524194 101.318422 8.40524194 102.332314 8.40524194 103.199412 8.66364856 103.905464 9.18450652 104.642801 9.72844353 105.025769 10.4504319 105.025769 11.3140121 105.025769 12.4312286 104.524326 13.2412509 103.55675 13.6630152L103.004589 13.9037004 102.928314 13.306212C102.818568 12.4465347 102.503344 11.7938873 101.98413 11.3274744 101.466596 10.8625714 100.801679 10.6291898 99.966986 10.6291898 99.2358657 10.6291898 98.6091327 10.8614754 98.0671021 11.3324201 97.5368761 11.7931082 97.2857234 12.2912965 97.2857234 12.8497354 97.2857234 13.5500488 97.7446453 14.2825587 98.7155907 15.0481631L100.49227 16.4879392C102.331542 17.9377177 103.275044 19.4584219 103.275044 21.0504977 103.275044 22.2034571 102.947263 23.2868025 102.296292 24.2908426 101.650083 25.2875367 100.773598 26.0818512 99.6731302 26.6702204 98.57394 27.2579062 97.4105097 27.5528604 96.1891067 27.5528604 94.2177466 27.5528604 92.5506574 26.6415183 91.2195887 24.8522129L91.0053322 24.564196zM105.195562 24.564196L107.622327 21.704081 107.908098 22.3795401C108.741754 24.3500007 110.018174 25.2981981 111.792202 25.2981981 112.704302 25.2981981 113.470586 25.0069208 114.113336 24.4184879 114.749619 23.8359749 115.05704 23.1821647 115.05704 22.4326487 115.05704 21.8950419 114.914248 21.4498667 114.629152 21.0809196 114.309381 20.6670982 113.497496 19.9253763 112.213628 18.8822329 110.978778 17.8776093 110.142229 17.0831507 109.694756 16.4828827 109.21608 15.8407566 108.975576 15.095778 108.975576 14.2626008 108.975576 13.2080495 109.285269 12.2282908 109.899688 11.3345906 110.504635 10.4546684 111.312313 9.74588924 112.317051 9.2107574 113.32395 8.67447408 114.389889 8.40524194 115.508653 8.40524194 116.522545 8.40524194 117.389642 8.66364856 118.095694 9.18450652 118.833031 9.72844353 119.215999 10.4504319 119.215999 11.3140121 119.215999 12.4312286 118.714557 13.2412509 117.74698 13.6630152L117.19482 13.9037004 117.118545 13.306212C117.008798 12.4465347 116.693574 11.7938873 116.17436 11.3274744 115.656826 10.8625714 114.991909 10.6291898 114.157216 10.6291898 113.426096 10.6291898 112.799363 10.8614754 112.257332 11.3324201 111.727106 11.7931082 111.475954 12.2912965 111.475954 12.8497354 111.475954 13.5500488 111.934875 14.2825587 112.905821 15.0481631L114.682501 16.4879392C116.521772 17.9377177 117.465274 19.4584219 117.465274 21.0504977 117.465274 22.2034571 117.137493 23.2868025 116.486522 24.2908426 115.840314 25.2875367 114.963829 26.0818512 113.86336 26.6702204 112.76417 27.2579062 111.60074 27.5528604 110.379337 27.5528604 108.407977 27.5528604 106.740888 26.6415183 105.409819 24.8522129L105.195562 24.564196z"/>
  </g>
</svg>
